# xmcd CD database file
#
# Track frame offsets:
#	150
#	25089
#	41853
#	69973
#	90600
#	120727
#	153760
#	184823
#	209172
#	233744
#	254389
#	277339
#
# Disc length: 3908 seconds
#
# Revision: 0
# Processed by: cddbd v1.5.2PL0 Copyright (c) Steve Scherf et al.
# Submitted via: CDex 1.51
#
DISCID=ab0f420c
DTITLE=Bill Tapia - livin' it live
DYEAR=2009
DGENRE=Jazz
TTITLE0=Undecided
TTITLE1=I Want To Learn To Speak Hawaiian
TTITLE2=Secret Love
TTITLE3=Nearness of You
TTITLE4=E Ku'u Morning Dew - featuring Mihana
TTITLE5=Honeysucle Rose -featuring Ledward Kaapana
TTITLE6=Satin Doll -featuring Lyle Ritz
TTITLE7=All of Me -featuring Mihana
TTITLE8=The Sheik of Araby-featuring Ledward Kaapana 
TTITLE9=The Lady is a Tramp-featuring Lyle Ritz
TTITLE10=In a Mellow Tone
TTITLE11=Stars And Stripes Forever
EXTD=YEAR: 2009
EXTT0=
EXTT1=
EXTT2=
EXTT3=
EXTT4=
EXTT5=
EXTT6=
EXTT7=
EXTT8=
EXTT9=
EXTT10=
EXTT11=
PLAYORDER=
